<svg version="1.2" xmlns="http://www.w3.org/2000/svg" viewBox="0 0 1598 304" width="1598" height="304">
	<title>Casio_logo-svg</title>
	<style>
		.s0 { fill: #003296 } 
	</style>
	<g id="layer1">
		<path id="path5" fill-rule="evenodd" class="s0" d="m1592.6 73c6.5 40.2 6.5 125.1 0 158.3-4.8 21.5-23 54.8-68.1 65-38.6 8-161.4 10.2-203.2 1.6-40.2-6.4-67-34.9-73.5-66.6-6.4-34.9-6.4-120.2 0-158.3 8.6-33.3 37-60.2 73.5-66.6 48.3-8.6 170-6.4 201.6 0 31.7 7 61.7 31.7 69.7 66.6zm-104.5 145.5c10.2-4.9 13.4-9.7 15-19.9 4.8-21.5 4.8-76.8 0-98.3-1.6-9.6-4.8-16.6-15-19.8-11.8-4.8-118-3.2-129.8 0-9.7 3.2-16.6 9.6-18.2 21.5-3.2 23-3.2 76.7 0 98.2 1.6 12.9 4.8 19.9 18.2 23.1 15 3.2 120.1 3.2 129.8-4.8zm-382.9-210h91.7v288.3h-91.7zm-251 171.8c-4.8 0-38-1.6-49.8-3.2-40.3-8.1-63.3-33.3-63.3-83.2 0-61.2 30-80 60-86.4 31.7-4.9 134.6-6.5 179.7-1.7 45 3.8 70.2 28.5 75.1 73.6 0 4.8 1.6 10.2 1.6 16.6h-91.7v-6.4c0-8.1-3.2-15-13.4-18.3-8.6-3.2-86.9-3.2-106.7 0-16.7 3.3-18.3 11.3-18.3 23.1 0 11.3 3.2 19.9 16.6 21.5 21.5 3.2 119.6 6.4 128.2 6.4 10.2 0 33.3 1.7 43.4 4.9 36.5 11.8 51.5 39.7 51.5 81.6 0 37-11.8 78.4-58.4 88.6-40.2 8.5-171.6 6.4-206.5 0-43.4-8.6-58.4-35.5-61.7-73.6-1.6-7-1.6-11.8-1.6-13.4h91.7v4.8c3.8 18.3 15.1 18.3 25.2 19.9 23.1 3.2 84.8 3.2 103 0 16.6-1.6 18.2-12.9 18.2-23.1 0-10.2-3.2-22-18.2-25.2-6.4-1.6-93.3-5.4-104.6-6.5zm-236.4 64.4l-142.2-1.6-19.8 53.2h-98.1l121.7-289.9h133l123.3 289.9h-98.1zm-63.3-174.5h-15l-43.4 114.9h101.3zm-459.5 131.5c1.6 16.7 10.1 19.9 18.2 21.5 13.4 3.2 108.3 3.2 124.9 0 11.8-1.6 19.9-10.2 21.5-19.9 0-4.8 1.6-13.4 1.6-16.6h94.9c0 6.4 0 23.1-1.6 38.1-4.8 34.9-25.2 63.3-68.1 73.5-30 6.5-174.8 6.5-208.1 0-34.8-8.5-64.9-30-73.4-66.5-6.5-33.3-6.5-120.3 0-156.8 4.8-26.8 30-58.5 71.3-66.5 38.1-6.5 173.2-8.6 209.7 0 48.2 11.8 63.2 54.7 64.8 69.7 1.7 16.7 1.7 28.5 1.7 34.9h-95c0-6.4 1.6-25.2-15-30-10.2-3.2-102.9-3.2-126.5-1.6-11.8 1.6-18.3 6.4-19.9 18.2-4.3 23.6-4.3 80-1 102z"/>
	</g>
</svg>